name analog
datacolumns 19
datarows 23
range 0.0 0.011
endheader
time	ground_force_vx	ground_force_vy	ground_force_vz	ground_force_px	ground_force_py	ground_force_pz	l_ground_force_vx	l_ground_force_vy	l_ground_force_vz	l_ground_force_px	l_ground_force_py	l_ground_force_pz	ground_torque_x	ground_torque_y	ground_torque_z	l_ground_torque_x	l_ground_torque_y	l_ground_torque_z
0.0	-0.0	-0.0	-0.0	-11.147333145141602	3.8119029998779297	-46.3292236328125	10.58806324005127	9.60498332977295	-710.8531494140625	-0.0	-0.0	-0.0	-0.0	-0.0	-0.0	268473.9375	-2088.3955078125	4142.47607421875
0.0005	-0.0	-0.0	-0.0	-11.444819450378418	3.434415102005005	-47.26342391967773	10.144478797912598	9.65837574005127	-712.1280517578125	-0.0	-0.0	-0.0	-0.0	-0.0	-0.0	268378.9375	-2040.1278076171875	3965.50146484375
0.001	-0.0	-0.0	-0.0	-10.96364974975586	3.605746030807495	-48.260833740234375	10.317852020263672	9.437450408935549	-711.7815551757812	-0.0	-0.0	-0.0	-0.0	-0.0	-0.0	268723.65625	-1771.463134765625	4004.338134765625
0.0015	-0.0	-0.0	-0.0	-11.012128829956056	3.7066493034362793	-47.17065048217773	10.3138427734375	9.25284194946289	-712.99853515625	-0.0	-0.0	-0.0	-0.0	-0.0	-0.0	268603.6875	-1755.0980224609375	3948.0244140625
0.002	-0.0	-0.0	-0.0	-10.977999687194824	3.3943612575531006	-45.56464385986328	10.37307071685791	9.177769660949709	-712.9522705078125	-0.0	-0.0	-0.0	-0.0	-0.0	-0.0	268450.46875	-1779.0992431640625	3931.102783203125
0.0025	-0.0	-0.0	-0.0	-10.647196769714355	3.5454344749450684	-46.972930908203125	10.510188102722168	9.227585792541504	-711.5261840820312	-0.0	-0.0	-0.0	-0.0	-0.0	-0.0	268234.96875	-1653.587890625	3860.972412109375
0.003	-0.0	-0.0	-0.0	-10.97671604156494	3.6397030353546143	-45.7829704284668	9.994452476501465	9.119261741638184	-711.521728515625	-0.0	-0.0	-0.0	-0.0	-0.0	-0.0	268253.125	-1724.338134765625	3853.488525390625
0.0035	-0.0	-0.0	-0.0	-10.91465187072754	3.1231703758239746	-46.00508117675781	9.99525260925293	8.876263618469238	-711.69189453125	-0.0	-0.0	-0.0	-0.0	-0.0	-0.0	268182.75	-1521.26220703125	3777.2607421875
0.004	-0.0	-0.0	-0.0	-11.272074699401855	3.3823819160461426	-44.63782501220703	9.784971237182615	8.765974998474121	-711.7364501953125	-0.0	-0.0	-0.0	-0.0	-0.0	-0.0	267833.6875	-1514.3468017578125	3763.713134765625
0.0045000000000000005	-0.0	-0.0	-0.0	-10.588249206542969	3.2393712997436523	-43.97664642333984	9.702730178833008	9.362098693847656	-711.341796875	-0.0	-0.0	-0.0	-0.0	-0.0	-0.0	267457.71875	-1204.2943115234375	3761.3173828125
0.005	-0.0	-0.0	-0.0	-10.572738647460938	3.237233638763428	-43.74616241455078	9.659873962402344	8.869978904724121	-711.9773559570312	-0.0	-0.0	-0.0	-0.0	-0.0	-0.0	267566.03125	-1219.6240234375	3733.03759765625
0.0055	-0.0	-0.0	-0.0	-10.763084411621094	3.010705709457397	-43.50568389892578	9.706294059753418	9.060413360595703	-711.225830078125	-0.0	-0.0	-0.0	-0.0	-0.0	-0.0	267313.875	-1133.690185546875	3618.11474609375
0.006	-0.0	-0.0	-0.0	-10.455671310424805	3.2280843257904053	-43.64618682861328	9.277414321899414	9.031290054321287	-711.9097900390625	-0.0	-0.0	-0.0	-0.0	-0.0	-0.0	267008.25	-856.5731201171875	3488.494873046875
0.006500000000000001	-0.0	-0.0	-0.0	-10.098285675048828	3.415857076644897	-41.67523193359375	9.432191848754885	9.185455322265623	-712.269287109375	-0.0	-0.0	-0.0	-0.0	-0.0	-0.0	266663.40625	-848.545654296875	3341.42236328125
0.007	-0.0	-0.0	-0.0	-10.464008331298828	2.967848777770996	-42.982200622558594	9.200394630432127	9.380638122558594	-711.83349609375	-0.0	-0.0	-0.0	-0.0	-0.0	-0.0	266809.25	-692.6148681640625	3292.837890625
0.0075	-0.0	-0.0	-0.0	-10.21431827545166	3.030433416366577	-42.67552947998047	8.826723098754883	9.170881271362305	-712.6184692382812	-0.0	-0.0	-0.0	-0.0	-0.0	-0.0	266813.40625	-659.1314697265625	3207.354736328125
0.008	-0.0	-0.0	-0.0	-10.3445405960083	3.115966558456421	-42.54374313354492	8.741708755493164	9.468820571899414	-712.9674682617188	-0.0	-0.0	-0.0	-0.0	-0.0	-0.0	266813.6875	-465.073486328125	3036.827392578125
0.0085	-0.0	-0.0	-0.0	-10.140289306640623	2.629305362701416	-40.321319580078125	8.797118186950684	8.97923469543457	-713.840087890625	-0.0	-0.0	-0.0	-0.0	-0.0	-0.0	266643.4375	-350.322509765625	2999.603759765625
0.009000000000000001	-0.0	-0.0	-0.0	-9.99174690246582	2.729811191558838	-40.98235321044922	8.723660469055176	8.879979133605957	-714.655517578125	-0.0	-0.0	-0.0	-0.0	-0.0	-0.0	266627.5	-167.45391845703125	2838.8310546875
0.0095	-0.0	-0.0	-0.0	-10.140799522399902	2.666471004486084	-39.70294189453125	8.44245719909668	8.95014762878418	-715.4981079101562	-0.0	-0.0	-0.0	-0.0	-0.0	-0.0	266266.5625	-39.58059310913086	2851.275634765625
0.01	-0.0	-0.0	-0.0	-9.943296432495115	2.290840148925781	-40.05792999267578	7.983659744262695	8.787975311279297	-716.9529418945312	-0.0	-0.0	-0.0	-0.0	-0.0	-0.0	266273.625	56.5933837890625	2673.897216796875
0.0105	-0.0	-0.0	-0.0	-10.05159854888916	2.361135005950928	-38.07915115356445	7.614635467529297	8.361702919006348	-716.9293212890625	-0.0	-0.0	-0.0	-0.0	-0.0	-0.0	266227.3125	292.1372985839844	2662.764892578125
0.011	-0.0	-0.0	-0.0	-9.38205623626709	2.174521923065185	-38.157981872558594	7.448104858398437	8.086531639099121	-716.7294311523438	-0.0	-0.0	-0.0	-0.0	-0.0	-0.0	266284.78125	283.80224609375	2348.08447265625
